Coordinates
version=1
nRows=8
nColumns=42
inDegrees=yes

Units are S.I. units (second, meters, Newtons, ...)
If the header above contains a line with 'inDegrees', this indicates whether rotational values are in degrees (yes) or radians (no).

endheader
time	pelvis_tilt	pelvis_list	pelvis_rotation	pelvis_tx	pelvis_ty	pelvis_tz	hip_flexion_r	hip_adduction_r	hip_rotation_r	knee_angle_r	knee_adduction_r	knee_angle_r_beta	ankle_angle_r	subtalar_angle_r	mtp_angle_r	hip_flexion_l	hip_adduction_l	hip_rotation_l	knee_angle_l	knee_adduction_l	knee_angle_l_beta	ankle_angle_l	subtalar_angle_l	mtp_angle_l	lumbar_extension	lumbar_bending	lumbar_rotation	arm_flex_r	arm_add_r	arm_rot_r	elbow_flex_r	pro_sup_r	wrist_flex_r	wrist_dev_r	arm_flex_l	arm_add_l	arm_rot_l	elbow_flex_l	pro_sup_l	wrist_flex_l	wrist_dev_l
      1.98000000	      8.13600210	      1.01121129	      8.38508191	      0.28755998	      0.86399889	      0.15330993	     22.26747658	      0.29196003	     -4.53248783	     56.94321015	     -2.11539354	      0.99384650	     15.70304077	    -18.97410242	     -7.54580268	     12.13896002	      9.87077772	     -6.78793003	     38.17437657	    -11.39719968	      0.66626856	     24.21282975	    -13.51053095	     -7.54580268	    -36.54164191	      3.76266223	     -6.98673757	     13.65680723	     -5.82284204	     -2.24276083	     34.03826099	     90.00000001	      0.00000000	      0.00000000	     23.47935484	    -10.57609649	     -3.52877094	     30.89720638	     90.00000001	      0.00000000	      0.00000000
      1.99000000	      7.79005632	      1.23839498	      8.57823221	      0.29550401	      0.86306106	      0.15273811	     23.17193723	     -0.10401111	     -4.49803112	     54.08115097	     -2.08078138	      0.94389415	     15.42944561	    -18.88220164	     -7.54502716	     11.87881368	     10.25863575	     -7.02897556	     38.08222120	    -11.83169190	      0.66466015	     24.70391263	    -13.14773399	     -7.54502716	    -36.23855636	      3.64237541	     -7.27355095	     13.15073025	     -5.76258717	     -2.48037253	     33.69785239	     90.00000001	      0.00000000	      0.00000000	     24.00185959	    -10.70555453	     -3.04967176	     31.30676633	     90.00000001	      0.00000000	      0.00000000
      2.00000000	      8.02884039	      1.25337838	      8.76203824	      0.30392547	      0.86354505	      0.15271029	     23.01319822	     -0.02940366	     -4.54176522	     50.43810648	     -2.10572576	      0.88031103	     14.92247799	    -18.87213261	     -7.54326742	     10.88124593	      9.99863494	     -7.31462561	     37.94315071	    -11.84656087	      0.66223291	     25.53378693	    -12.33493425	     -7.54326742	    -36.56655937	      3.75421018	     -7.30606614	     12.85453991	     -5.53991064	     -3.49896070	     33.06059369	     90.00000001	      0.00000000	      0.00000000	     24.51724480	    -11.03264149	     -1.44324658	     31.96399528	     90.00000001	      0.00000000	      0.00000000
      2.01000000	      7.97641216	      1.41253131	      8.90476682	      0.31228877	      0.86310407	      0.15248664	     23.28331433	     -0.25207586	     -4.73141625	     47.05228394	     -2.16615755	      0.82121728	     14.56831754	    -18.78434682	     -7.54099772	     10.26451970	     10.07452134	     -7.81548293	     37.85738290	    -12.16278124	      0.66073598	     26.27774258	    -11.37835696	     -7.54099772	    -36.56263134	      3.70017743	     -7.41895368	     12.40885256	     -5.39886882	     -4.45823763	     32.62840680	     90.00000001	      0.00000000	      0.00000000	     24.93478340	    -11.32800271	     -0.15527931	     32.60516981	     90.00000001	      0.00000000	      0.00000000
      2.02000000	      7.76820294	      1.53127121	      9.06974605	      0.32044511	      0.86224640	      0.15234402	     23.67369696	     -0.46601875	     -4.86609621	     43.60151582	     -2.14599495	      0.76099001	     14.30404262	    -18.71454131	     -7.53977064	      9.91513241	     10.11515653	     -8.12240447	     37.95770843	    -12.35209857	      0.66248699	     26.91205671	    -10.91420681	     -7.53977064	    -36.40687920	      3.66325908	     -7.56842504	     12.00178435	     -5.32161510	     -4.89993022	     32.17612843	     90.00000001	      0.00000000	      0.00000000	     25.41313977	    -11.48935628	      0.48547237	     33.08244520	     90.00000001	      0.00000000	      0.00000000
      2.03000000	      7.30814413	      1.81598901	      9.17424577	      0.32849130	      0.86067404	      0.15211855	     24.49035908	     -0.94557801	     -5.30445657	     40.55186148	     -2.31291039	      0.70776350	     14.23018192	    -18.51418365	     -7.53911777	      9.77941955	     10.58226053	     -8.41047337	     37.87274468	    -12.84273355	      0.66100409	     27.42410443	    -10.58440774	     -7.53911777	    -35.99959188	      3.40427080	     -7.79243511	     11.48590922	     -5.28059494	     -5.14821810	     31.95507928	     90.00000001	      0.00000000	      0.00000000	     25.83326647	    -11.60848357	      0.84214071	     33.51164572	     90.00000001	      0.00000000	      0.00000000
      2.04000000	      7.47558122	      1.73944232	      9.29193310	      0.33708317	      0.86058619	      0.15246606	     24.13429477	     -0.76363681	     -5.81074898	     36.74854407	     -2.48684604	      0.64138309	     13.85479106	    -18.42269933	     -7.53771510	      8.97029482	     10.08610508	     -8.83198922	     37.96256318	    -12.73879996	      0.66257172	     28.33835744	     -9.64598229	     -7.53771510	    -36.23473771	      3.57932352	     -7.68403404	     11.17654451	     -5.18507688	     -6.14646129	     31.47920444	     90.00000001	      0.00000000	      0.00000000	     26.25568756	    -11.83981548	      2.00636889	     34.24286332	     90.00000001	      0.00000000	      0.00000000
      2.05000000	      7.31530323	      1.77529204	      9.43499760	      0.34549064	      0.85959376	      0.15260792	     24.27694192	     -0.85796204	     -6.39081098	     33.50097347	     -2.57779898	      0.58470229	     13.70504035	    -18.17311969	     -7.53635934	      8.57910600	      9.97677420	     -9.27973701	     38.06146700	    -13.00735137	      0.66429792	     29.13551995	     -8.81162016	     -7.53635934	    -36.12093619	      3.60577088	     -7.70262238	     10.77743928	     -5.08011703	     -6.90058381	     31.14319139	     90.00000001	      0.00000000	      0.00000000	     26.59719909	    -11.98164746	      2.78467326	     34.87323650	     90.00000001	      0.00000000	      0.00000000
